/vscmnt/brussel_pixiu_data/_data_brussel/112/vsc11236/PredSimResults/SUBJ11opt3D/expIG/worker_03.mot
version=1
nRows=8
nColumns=50
inDegrees=yes
endheader
                time	         pelvis_tilt	         pelvis_list	     pelvis_rotation	           pelvis_tx	           pelvis_ty	           pelvis_tz	       hip_flexion_r	     hip_adduction_r	      hip_rotation_r	        knee_angle_r	       ankle_angle_r	         mtp_angle_r	       hip_flexion_l	     hip_adduction_l	      hip_rotation_l	        knee_angle_l	       ankle_angle_l	         mtp_angle_l	    lumbar_extension	      lumbar_bending	     lumbar_rotation	 ercspn_r/activation	 intobl_r/activation	 extobl_r/activation	    abd_r/activation	    add_r/activation	hamstrings_r/activation	bifemsh_r/activation	glut_max_r/activation	iliopsoas_r/activation	rect_fem_r/activation	  vasti_r/activation	gastroc_r/activation	 soleus_r/activation	tib_ant_r/activation	 ercspn_l/activation	 intobl_l/activation	 extobl_l/activation	    abd_l/activation	    add_l/activation	hamstrings_l/activation	bifemsh_l/activation	glut_max_l/activation	iliopsoas_l/activation	rect_fem_l/activation	  vasti_l/activation	gastroc_l/activation	 soleus_l/activation	tib_ant_l/activation	
          2.42306128	         -2.23698031	         -0.10156908	         -4.12443069	          1.93844902	          0.95081931	          0.00954044	        -11.01056806	         -1.66695965	         -5.37475972	        -12.48005711	         13.85451598	         24.27288587	         28.77903954	         -2.71918630	         -2.57995205	        -10.20612701	          0.30773215	          0.22851074	        -15.01633808	          4.07060149	          3.05793962	          0.01000000	          0.00999999	          0.00999999	          0.05078516	          0.01269228	          0.01255799	          0.12844945	          0.01692966	          0.04308286	          0.01000001	          0.00999999	          0.12909437	          0.28759384	          0.01274745	          0.01269227	          0.22123665	          0.07507600	          0.00999999	          0.15600525	          0.00999999	          0.09383951	          0.05664043	          0.08547903	          0.04860327	          0.01843788	          0.00999999	          0.00999999	          0.33517644	
          2.43921502	         -2.42151600	         -0.12143074	         -3.97645427	          1.95497727	          0.94857276	          0.00724339	        -11.52376431	         -1.82672034	         -5.94005088	        -13.08695896	         13.44244249	         25.75429767	         28.28576608	         -2.49307818	         -2.61289197	        -10.66904029	         -0.19401290	          0.20119400	        -14.60433407	          3.59887421	          3.33378937	          0.00999999	          0.00999999	          0.01269232	          0.04001261	          0.01000000	          0.01494963	          0.10120273	          0.02223031	          0.03394411	          0.00999999	          0.01000000	          0.10490358	          0.27601125	          0.01004346	          0.00999999	          0.21955939	          0.05915087	          0.01653601	          0.12291340	          0.03346621	          0.07393426	          0.06052337	          0.06734721	          0.03829354	          0.01452684	          0.01269228	          0.01269228	          0.37292489	
          2.45536876	         -2.58688529	         -0.11142515	         -3.80472022	          1.97191686	          0.94679440	          0.00484727	        -11.94006838	         -2.03471132	         -6.52390802	        -13.91511443	         12.83861103	         27.32575036	         27.79534386	         -2.27547218	         -2.72392821	        -11.18368595	         -0.92864815	          0.19508370	        -14.15737270	          3.07635515	          3.60705443	          0.00999999	          0.00999999	          0.01000002	          0.03152513	          0.00999999	          0.01177851	          0.07973560	          0.01751481	          0.02674388	          0.01136743	          0.00999999	          0.08265142	          0.25867665	          0.00999999	          0.01472302	          0.17298642	          0.04660378	          0.05273894	          0.15351679	          0.04292577	          0.05825132	          0.05516055	          0.05306151	          0.03017071	          0.04028663	          0.00999999	          0.00999999	          0.43128742	
          2.47152250	         -2.73297360	         -0.09420654	         -3.60418107	          1.98901539	          0.94572853	          0.00235360	        -12.16302355	         -2.27629473	         -7.11343193	        -15.09231237	         11.97980030	         29.01868141	         27.39297282	         -2.07288310	         -2.93420851	        -11.86858053	         -1.68838353	          0.15556276	        -13.70715675	          2.53375500	          3.87279933	          0.01511383	          0.00999999	          0.00999999	          0.02483801	          0.00999999	          0.01810692	          0.06282207	          0.01500961	          0.02107097	          0.00999999	          0.01898214	          0.06511939	          0.23501807	          0.00999999	          0.01610939	          0.13629252	          0.03671818	          0.07590244	          0.16438421	          0.04829488	          0.04589504	          0.04345989	          0.04180609	          0.02377089	          0.09355175	          0.00999999	          0.00999999	          0.47174653	
          2.48767624	         -2.85971148	         -0.07183073	         -3.38224147	          2.00615962	          0.94553946	         -0.00020918	        -12.15673461	         -2.55638901	         -7.70645238	        -16.64937884	         10.81478950	         30.82022726	         27.02530003	         -1.87115384	         -3.16636612	        -12.70339622	         -2.12938349	          0.11200941	        -13.26324330	          1.97768097	          4.12867775	          0.04613438	          0.00999999	          0.00999999	          0.01956937	          0.01000003	          0.04229894	          0.04949625	          0.01278931	          0.01660139	          0.00999999	          0.02902454	          0.05130626	          0.20552223	          0.00999999	          0.01269226	          0.10738213	          0.02892951	          0.09454974	          0.16505552	          0.04932365	          0.03615978	          0.05673097	          0.03293818	          0.01872861	          0.12499975	          0.00999999	          0.00999999	          0.47176452	
          2.50382999	         -2.96779328	         -0.04755440	         -3.14333641	          2.02320366	          0.94635346	         -0.00280537	        -11.89039427	         -2.87631261	         -8.30736129	        -18.61145524	          9.33881428	         32.61874981	         26.64445125	         -1.65527517	         -3.32819105	        -13.61453260	         -2.15285517	          0.07676675	        -12.83626724	          1.41550181	          4.37383528	          0.05532646	          0.00999999	          0.00999999	          0.01541831	          0.07473479	          0.05973862	          0.03899710	          0.01007644	          0.01307990	          0.00999999	          0.02763053	          0.04042317	          0.16289392	          0.00999999	          0.00999999	          0.08460422	          0.02279298	          0.10673618	          0.19787427	          0.05340267	          0.02848956	          0.06393514	          0.02595133	          0.01475589	          0.13290349	          0.00999999	          0.00999999	          0.43846029	
          2.51998373	         -3.05659103	         -0.03320446	         -2.88993703	          2.04000497	          0.94810432	         -0.00540060	        -11.29276214	         -3.23757782	         -8.91505707	        -21.10362032	          7.65669883	         34.17183207	         26.20661192	         -1.42792322	         -3.37006554	        -14.50650177	         -1.81019729	          0.08516617	        -12.43807585	          0.86225163	          4.60439480	          0.06864804	          0.04153249	          0.00999999	          0.01214778	          0.05888204	          0.06883018	          0.03072503	          0.00999999	          0.01030539	          0.00999999	          0.02176954	          0.03184860	          0.12834084	          0.00999999	          0.01000018	          0.06665796	          0.01795813	          0.11750324	          0.20704248	          0.05896112	          0.02244636	          0.05426479	          0.02044653	          0.01162587	          0.13904472	          0.00999999	          0.00999999	          0.37998343	
          2.53613747	         -3.12449011	         -0.04665564	         -2.63160318	          2.05644588	          0.95058920	         -0.00798331	        -10.29705955	         -3.64389505	         -9.52892728	        -24.23870836	          5.87625428	         35.20072928	         25.65929954	         -1.20772250	         -3.29349203	        -15.25904591	         -1.21008057	          0.19837666	        -12.08054130	          0.34726878	          4.81326074	          0.07613875	          0.07123256	          0.00999999	          0.00999999	          0.04639198	          0.07054177	          0.02420763	          0.00999999	          0.00999999	          0.00999999	          0.01715178	          0.02509287	          0.10111716	          0.00999999	          0.01000001	          0.05251847	          0.01414885	          0.12295646	          0.20398781	          0.06223816	          0.01768504	          0.05060181	          0.01610941	          0.00999999	          0.14197486	          0.00999999	          0.00999999	          0.31587661	
